PathFileType   4   (X/Y/Z)
DataRate	CameraRate	NumFrames	NumMarkers	Units	OrigDataRate	OrigDataStartFrame	OrigNumFrames
120.0	120.0	12	37	mm	120.0	42	97
Frame#	Time	midhip	hip_r	hip_l	knee_r	knee_l	ankle_r	ankle_l	midasis	asis_r	asis_l	psis_r	psis_l	epicondLat_r	epicondLat_l	epicondMed_r	epicondMed_l	malleolusLat_r	malleolusLat_l	malleolusMedv_r	malleolusMedv_l	neck	subclavicle_r	subclavicle_l	sternalnotch	xyphoidprocess	thighwand_r	thighwand_l	upperleg1_r	upperleg1_l	upperleg2_r	upperleg2_l	shankwand_r	shankwand_l	lowerleg1_r	lowerleg1_l	toe_r	toe_l
 	 	X1	Y1	Z1	X2	Y2	Z2	X3	Y3	Z3	X4	Y4	Z4	X5	Y5	Z5	X6	Y6	Z6	X7	Y7	Z7	X8	Y8	Z8	X9	Y9	Z9	X10	Y10	Z10	X11	Y11	Z11	X12	Y12	Z12	X13	Y13	Z13	X14	Y14	Z14	X15	Y15	Z15	X16	Y16	Z16	X17	Y17	Z17	X18	Y18	Z18	X19	Y19	Z19	X20	Y20	Z20	X21	Y21	Z21	X22	Y22	Z22	X23	Y23	Z23	X24	Y24	Z24	X25	Y25	Z25	X26	Y26	Z26	X27	Y27	Z27	X28	Y28	Z28	X29	Y29	Z29	X30	Y30	Z30	X31	Y31	Z31	X32	Y32	Z32	X33	Y33	Z33	X34	Y34	Z34	X35	Y35	Z35	X36	Y36	Z36	X37	Y37	Z37

	42	0.44167	1748.431	793.387	-257.843	1733.394	773.225	-185.689	1734.396	781.102	-337.609	1600.497	437.151	-196.853	1918.465	427.524	-346.235	1409.714	108.314	-203.412	2027.761	78.243	-347.433	1825.158	849.709	-254.241	1820.410	843.416	-134.120	1829.907	856.001	-374.361	1631.585	913.372	-232.186	1628.856	906.567	-287.075	1601.310	434.905	-138.902	1924.951	432.302	-403.672	1605.309	440.985	-256.101	1916.283	421.890	-293.556	1394.814	116.235	-167.145	2012.911	73.723	-384.298	1423.122	109.870	-236.524	2042.222	95.222	-324.539	1721.609	1353.451	-260.181	1852.106	1293.785	-221.746	1841.472	1287.151	-327.109	1843.370	1287.557	-273.457	1883.505	1217.974	-276.882	1800.762	505.863	-201.751	1905.674	561.055	-492.146	1755.532	577.091	-146.407	1822.849	577.347	-433.651	1711.514	501.991	-150.641	1866.264	502.207	-425.413	1422.216	189.999	-96.381	2076.684	229.399	-345.166	1428.621	194.256	-139.077	2041.035	218.668	-353.120	1481.098	44.018	-170.598	2133.893	87.167	-373.550
	43	0.45000	1764.519	792.101	-259.836	1748.769	771.772	-186.608	1750.282	779.795	-338.517	1614.571	435.669	-196.478	1933.669	426.192	-345.259	1414.112	112.203	-201.822	2039.193	76.433	-344.930	1840.497	848.654	-254.763	1835.348	842.236	-134.737	1845.646	855.072	-374.789	1646.809	911.590	-234.467	1644.361	904.841	-289.380	1614.965	433.809	-138.509	1940.902	431.037	-402.602	1619.542	440.878	-256.014	1932.794	422.332	-290.692	1399.502	120.658	-165.559	2024.836	72.067	-382.008	1427.775	113.140	-234.757	2052.779	91.883	-321.158	1734.965	1351.981	-261.214	1865.702	1292.393	-222.587	1855.288	1285.888	-327.887	1857.123	1286.140	-274.479	1897.344	1216.714	-277.719	1815.416	503.426	-200.433	1923.101	559.706	-491.096	1771.210	575.710	-144.998	1840.527	575.830	-433.633	1725.366	499.487	-149.828	1883.902	500.929	-424.035	1429.304	194.060	-95.048	2090.088	227.065	-341.910	1435.871	197.711	-137.535	2053.603	214.806	-349.810	1482.432	44.418	-170.241	2145.979	83.117	-370.561
	44	0.45833	1780.883	791.169	-262.147	1764.374	770.477	-187.572	1766.293	778.708	-339.464	1629.460	434.038	-196.001	1949.012	425.240	-344.307	1419.228	116.359	-200.116	2048.351	74.560	-342.448	1856.019	847.780	-255.361	1850.556	841.191	-135.503	1861.482	854.369	-375.219	1662.174	909.983	-236.692	1659.999	903.372	-291.638	1629.540	432.553	-138.020	1957.068	430.189	-401.532	1633.740	440.347	-255.872	1949.200	424.125	-286.735	1404.911	125.364	-163.868	2034.624	70.473	-379.796	1432.801	116.506	-233.010	2061.301	87.515	-317.529	1748.511	1350.297	-262.092	1879.558	1291.085	-223.747	1869.098	1284.722	-329.270	1870.886	1284.867	-275.520	1911.447	1215.621	-279.142	1830.766	501.201	-199.330	1940.801	558.775	-489.837	1786.717	573.054	-144.534	1858.551	575.065	-433.754	1740.000	497.941	-149.309	1902.082	499.896	-422.115	1437.144	198.356	-93.621	2102.236	224.260	-338.247	1443.676	201.358	-136.285	2065.139	210.436	-345.708	1483.899	44.810	-169.860	2155.911	77.979	-367.462
	45	0.46667	1798.657	791.908	-263.951	1780.128	769.353	-188.614	1782.322	777.902	-340.485	1645.177	432.255	-195.428	1964.433	424.783	-343.407	1425.214	120.738	-198.277	2055.635	72.841	-340.163	1871.653	847.094	-256.062	1865.983	840.254	-136.437	1877.323	853.935	-375.687	1677.633	908.608	-238.759	1675.629	902.243	-293.758	1645.049	431.134	-137.439	1973.378	429.869	-400.487	1649.818	438.377	-255.482	1965.411	425.872	-283.099	1411.186	130.312	-162.062	2042.686	69.138	-377.827	1438.176	120.261	-231.347	2068.309	83.735	-314.600	1762.176	1348.366	-263.268	1893.182	1289.841	-225.026	1882.939	1283.500	-330.663	1884.707	1283.809	-276.566	1925.530	1214.568	-280.461	1846.846	499.231	-198.475	1958.676	558.395	-488.483	1802.166	570.711	-144.125	1876.399	574.555	-433.307	1756.129	496.862	-148.706	1919.796	499.704	-420.101	1445.832	202.852	-92.108	2113.241	221.230	-334.304	1451.930	205.272	-135.189	2076.382	207.322	-341.706	1485.529	45.202	-169.450	2164.006	72.221	-364.385
	46	0.47500	1815.609	792.368	-266.237	1795.943	768.415	-189.763	1798.256	777.428	-341.605	1661.721	430.314	-194.779	1979.886	424.879	-342.562	1432.214	125.286	-196.296	2061.420	71.422	-338.205	1887.319	846.609	-256.890	1881.568	839.408	-137.550	1893.070	853.810	-376.230	1693.131	907.515	-240.566	1691.149	901.517	-295.644	1661.490	429.546	-136.785	1989.765	430.123	-399.473	1666.521	436.422	-254.814	1980.607	426.616	-280.768	1418.472	135.446	-160.130	2049.381	68.176	-376.212	1443.020	125.848	-230.385	2073.976	81.647	-312.521	1775.909	1346.732	-264.835	1906.520	1289.291	-226.111	1896.920	1282.445	-331.632	1898.624	1283.016	-277.628	1939.606	1213.967	-280.964	1863.687	497.563	-197.884	1976.612	558.662	-487.157	1818.363	569.143	-143.333	1894.169	574.845	-432.566	1772.587	495.273	-147.933	1936.765	500.303	-418.637	1455.494	207.501	-90.513	2123.203	218.162	-330.239	1459.734	209.746	-133.979	2086.494	205.212	-338.775	1487.388	45.619	-169.007	2170.557	66.365	-361.485
	47	0.48333	1831.609	792.436	-269.400	1811.740	767.676	-191.050	1814.011	777.316	-342.854	1679.118	428.199	-194.087	1995.319	425.493	-341.760	1440.350	129.951	-194.188	2066.043	70.352	-336.626	1902.943	846.334	-257.869	1897.240	838.650	-138.851	1908.647	854.018	-376.887	1708.618	906.728	-242.029	1706.467	901.219	-297.202	1678.873	427.776	-136.089	2006.150	430.899	-398.483	1683.853	432.647	-252.697	1995.459	428.735	-278.796	1426.903	140.704	-158.083	2055.018	67.602	-374.978	1445.263	134.938	-230.778	2078.060	80.586	-311.021	1789.752	1345.432	-266.160	1920.378	1288.769	-226.999	1910.908	1281.786	-332.473	1912.641	1282.518	-278.706	1953.867	1213.552	-281.730	1881.304	496.242	-197.557	1994.480	559.582	-485.963	1835.419	568.060	-143.547	1912.051	576.644	-432.575	1789.816	493.293	-147.048	1953.883	501.884	-417.657	1466.272	212.245	-88.839	2132.201	215.145	-326.193	1465.800	215.581	-132.854	2095.003	203.725	-336.259	1489.586	46.116	-168.546	2175.818	60.877	-358.903
	48	0.49167	1847.262	792.866	-273.410	1827.457	767.136	-192.510	1829.547	777.565	-344.266	1697.392	425.881	-193.391	2010.635	426.480	-340.992	1449.728	134.699	-192.006	2069.744	69.607	-335.404	1918.472	846.271	-259.021	1912.926	837.985	-140.355	1924.018	854.557	-377.687	1724.049	906.230	-243.092	1721.547	901.321	-298.350	1697.205	425.803	-135.391	2022.410	432.027	-397.512	1702.929	428.909	-251.227	2011.729	434.304	-276.328	1436.602	146.034	-155.961	2059.798	67.354	-374.082	1460.501	135.425	-225.928	2080.968	80.023	-309.926	1803.299	1344.786	-267.322	1934.809	1288.317	-227.956	1925.128	1281.731	-333.321	1926.727	1282.367	-279.769	1968.479	1213.464	-283.014	1899.688	495.310	-197.486	2012.129	561.039	-484.968	1853.647	567.465	-144.299	1929.221	579.367	-433.340	1808.487	491.656	-146.735	1971.419	505.034	-416.764	1478.302	217.000	-87.099	2140.296	212.184	-322.287	1482.057	219.041	-129.691	2102.864	202.665	-333.831	1492.274	46.789	-168.092	2180.007	56.078	-356.737
	49	0.50000	1862.581	793.509	-277.185	1843.053	766.775	-194.170	1844.861	778.140	-345.862	1716.582	423.334	-192.728	2025.673	427.621	-340.261	1460.431	139.525	-189.842	2072.720	69.113	-334.478	1933.869	846.411	-260.354	1928.558	837.414	-142.066	1939.180	855.408	-378.643	1739.379	905.971	-243.718	1736.351	901.752	-299.042	1716.505	423.606	-134.728	2038.359	433.265	-396.575	1723.553	426.106	-251.789	2028.198	439.941	-274.711	1447.673	151.406	-153.841	2063.877	67.324	-373.447	1472.782	138.095	-222.500	2083.460	79.610	-309.062	1816.842	1345.143	-268.824	1949.169	1288.681	-229.021	1939.533	1281.865	-334.490	1940.857	1282.570	-280.816	1982.992	1213.778	-283.976	1918.809	494.797	-197.659	2029.382	562.813	-484.203	1872.051	567.019	-144.781	1946.334	582.821	-434.298	1827.920	490.537	-147.157	1988.965	508.568	-416.332	1491.695	221.649	-85.331	2147.532	209.238	-318.616	1496.960	223.260	-127.623	2110.745	201.766	-331.661	1495.670	47.781	-167.684	2183.306	52.121	-355.024
	50	0.50833	1878.197	795.058	-280.849	1858.501	766.572	-196.034	1859.968	779.000	-347.646	1736.706	420.543	-192.123	2040.196	428.677	-339.611	1472.511	144.457	-187.831	2075.102	68.786	-333.767	1949.109	846.742	-261.857	1944.079	836.942	-143.965	1954.140	856.543	-379.750	1754.562	905.889	-243.898	1750.928	902.412	-299.265	1736.777	421.173	-134.127	2053.740	434.358	-395.720	1744.719	421.994	-251.190	2044.510	443.145	-274.946	1460.191	156.805	-151.835	2067.338	67.396	-372.982	1484.696	141.920	-220.097	2085.729	78.928	-308.326	1830.952	1345.910	-270.288	1963.577	1289.897	-229.929	1953.583	1281.969	-336.234	1955.013	1283.080	-281.872	1997.262	1214.445	-284.700	1938.615	494.727	-198.066	2046.036	564.626	-483.679	1890.497	566.404	-145.417	1963.897	586.048	-435.456	1848.096	489.311	-147.218	2006.541	511.342	-416.928	1506.524	226.062	-83.601	2153.948	206.270	-315.266	1511.779	227.244	-126.072	2117.580	200.097	-328.745	1500.076	49.257	-167.368	2185.869	49.023	-353.736
	51	0.51667	1893.848	796.940	-283.634	1873.792	766.505	-198.088	1874.884	780.102	-349.603	1757.781	417.531	-191.587	2053.934	429.462	-339.105	1485.990	149.544	-186.129	2077.002	68.555	-333.199	1964.176	847.255	-263.510	1959.452	836.574	-146.024	1968.901	857.937	-380.995	1769.554	905.934	-243.663	1765.308	903.194	-299.054	1758.030	418.528	-133.596	2068.261	435.104	-395.023	1766.432	417.010	-249.209	2059.092	443.982	-275.990	1474.200	162.237	-150.075	2070.244	67.478	-372.610	1498.071	146.297	-218.081	2087.729	78.538	-307.550	1845.293	1346.904	-271.567	1977.794	1291.241	-230.919	1967.375	1282.754	-337.517	1969.160	1283.852	-282.931	2011.245	1215.493	-285.620	1959.032	495.122	-198.693	2061.871	566.200	-483.398	1909.541	565.851	-146.405	1980.519	587.522	-436.716	1869.202	488.155	-146.955	2022.809	513.073	-418.122	1522.829	230.105	-82.005	2159.595	203.280	-312.315	1527.881	230.992	-124.313	2122.977	197.535	-325.294	1505.866	51.365	-167.187	2187.823	46.697	-352.803
	52	0.52500	1909.174	798.866	-286.068	1888.938	766.555	-200.293	1889.618	781.403	-351.693	1779.783	414.369	-191.109	2066.653	429.882	-338.808	1500.881	154.837	-184.894	2078.516	68.379	-332.723	1979.063	847.943	-265.281	1974.670	836.320	-148.204	1983.457	859.566	-382.359	1784.325	906.065	-243.090	1779.516	904.010	-298.484	1780.230	415.743	-133.127	2081.658	435.395	-394.561	1789.940	411.724	-248.690	2071.857	443.847	-276.572	1489.717	167.700	-148.701	2072.646	67.521	-372.281	1513.324	151.195	-216.441	2089.032	78.370	-306.849	1859.464	1347.778	-272.530	1991.584	1291.914	-231.935	1981.421	1284.234	-338.271	1983.271	1284.825	-283.962	2025.144	1216.570	-286.946	1979.967	495.999	-199.510	2076.671	567.312	-483.369	1928.865	565.659	-147.476	1995.328	588.000	-437.463	1890.889	486.565	-147.371	2037.217	513.864	-418.829	1540.607	233.671	-80.650	2164.541	200.316	-309.833	1545.798	234.659	-122.298	2127.807	195.488	-323.719	1513.441	54.189	-167.172	2189.277	45.002	-352.136
	53	0.53333	1924.258	800.577	-287.249	1903.957	766.714	-202.576	1904.167	782.864	-353.844	1802.639	411.185	-190.662	2078.201	429.944	-338.761	1517.181	160.340	-184.258	2079.728	68.244	-332.319	1993.765	848.798	-267.126	1989.746	836.194	-150.446	1997.784	861.401	-383.807	1798.860	906.259	-242.278	1793.539	904.808	-297.659	1803.304	412.938	-132.693	2093.741	435.230	-394.390	1814.064	407.284	-249.558	2083.543	444.502	-276.307	1506.725	173.168	-147.842	2074.586	67.516	-371.980	1530.079	156.002	-215.369	2089.746	77.898	-306.390	1873.604	1348.251	-273.028	2005.634	1292.453	-232.808	1995.624	1285.833	-339.338	1997.361	1285.918	-284.912	2039.484	1217.775	-288.600	2001.321	497.379	-200.484	2090.264	567.837	-483.604	1948.532	565.495	-148.461	2008.636	588.593	-438.224	1912.779	484.862	-148.352	2050.365	514.112	-418.981	1559.784	236.706	-79.646	2168.874	197.456	-307.885	1565.432	237.735	-120.737	2132.173	193.814	-324.249	1523.180	57.706	-167.334	2190.327	43.781	-351.655
